<svg width="104" height="90" viewBox="0 0 113 99" fill="none" xmlns="http://www.w3.org/2000/svg">
<g clip-path="url(#clip0_102:64)">
<path d="M83.6351 14.3838L47.1924 14.3743C35.7264 19.9667 28 30.6862 28 43.0407C28 55.966 36.5359 67.1445 48.9381 72.4857C51.4704 73.5764 53.0503 75.8568 53.0503 78.329L53.0484 81.5L65.4283 85.3671L77.8242 81.5L77.8063 78.3283C77.8063 75.8489 79.4004 73.5718 81.9393 72.4766C94.3305 67.1318 102.857 55.9584 102.857 43.0403C102.857 30.7206 95.1016 19.9876 83.6351 14.3838Z" fill="#F5ED85"/>
<path d="M83.635 14.3838L47.1922 14.3743C47.1896 14.3757 47.1867 14.377 47.1841 14.3784L68.1862 14.3838C79.6527 19.9876 87.4078 30.7206 87.4078 43.0407C87.4078 54.1197 81.1364 63.9153 71.5342 69.8515L70.805 81.5002L75.3178 83.7238L77.824 81.5002L77.8061 78.3285C77.8061 75.8491 79.4002 73.572 81.9391 72.4768C94.3303 67.1319 102.857 55.9586 102.857 43.0405C102.857 30.7206 95.1015 19.9876 83.635 14.3838Z" fill="#EDCF76"/>
<path d="M47.7263 14.5615V24.5078C47.7263 25.4477 48.3778 26.2934 49.3727 26.6451L62.6531 31.3388C64.4335 31.9679 66.4228 31.9679 68.2032 31.3388L81.4836 26.6451C82.4785 26.2934 83.13 25.4477 83.13 24.5078V14.5615H47.7263Z" fill="#7C91DB"/>
<path d="M61.9644 19.5494L38.7822 11.428C38.1276 11.1987 38.1276 10.3868 38.7822 10.1575L61.9644 2.03605C64.1881 1.25703 66.6687 1.25703 68.8925 2.03605L92.0748 10.1575C92.7294 10.3868 92.7294 11.1987 92.0748 11.428L68.8925 19.5494C66.6687 20.3284 64.1881 20.3284 61.9644 19.5494Z" fill="#8CADE0"/>
<path d="M69.0145 97.5483H61.8419C59.0691 97.5483 56.821 95.5788 56.821 93.1495V90.1042H74.0354V93.1495C74.0354 95.579 71.7876 97.5483 69.0145 97.5483Z" fill="#91D4F2"/>
<path d="M46.9856 53.1045C50.7439 53.1045 53.7906 50.9789 53.7906 48.3567C53.7906 45.7346 50.7439 43.6089 46.9856 43.6089C43.2273 43.6089 40.1807 45.7346 40.1807 48.3567C40.1807 50.9789 43.2273 53.1045 46.9856 53.1045Z" fill="#FFA1AC"/>
<path d="M83.8706 53.1045C87.6289 53.1045 90.6756 50.9789 90.6756 48.3567C90.6756 45.7346 87.6289 43.6089 83.8706 43.6089C80.1123 43.6089 77.0657 45.7346 77.0657 48.3567C77.0657 50.9789 80.1123 53.1045 83.8706 53.1045Z" fill="#FFA1AC"/>
<path d="M78.2288 90.1042H52.628C49.9161 90.1042 47.7175 88.178 47.7175 85.8021C47.7175 83.4262 49.9161 81.5 52.628 81.5H78.2288C80.9407 81.5 83.1392 83.4262 83.1392 85.8021C83.1392 88.178 80.9407 90.1042 78.2288 90.1042Z" fill="#C2EAFB"/>
<path d="M78.2286 81.5H68.9912C71.7031 81.5 73.9017 83.4262 73.9017 85.8021C73.9017 88.178 71.7031 90.1042 68.9912 90.1042H78.2286C80.9406 90.1042 83.1391 88.178 83.1391 85.8021C83.1391 83.4262 80.9406 81.5 78.2286 81.5Z" fill="#91D4F2"/>
<path d="M48.9514 37.5423V39.8627C48.9514 40.6636 49.6923 41.3129 50.6067 41.3129C51.5211 41.3129 52.262 40.6636 52.262 39.8627V37.5423C52.262 36.7414 51.5211 36.0921 50.6067 36.0921C49.6923 36.0921 48.9514 36.7413 48.9514 37.5423Z" fill="black"/>
<path d="M67.6523 38.8956C67.0039 39.5478 66.0672 39.9217 65.0834 39.9217C64.0995 39.9217 63.1631 39.5478 62.5144 38.8956C61.9135 38.2917 60.8681 38.2291 60.179 38.755C59.49 39.2813 59.4181 40.1972 60.0186 40.8011C61.296 42.0853 63.1419 42.8218 65.0831 42.8218C67.0244 42.8218 68.8703 42.0851 70.1477 40.8011C70.7484 40.1972 70.6765 39.2813 69.9872 38.755C69.298 38.2289 68.2526 38.2917 67.6523 38.8956Z" fill="black"/>
<path d="M80.0712 35.6588C77.4661 35.6588 75.3469 37.5156 75.3469 39.7978C75.3469 40.5986 76.0878 41.2479 77.0021 41.2479C77.9165 41.2479 78.6574 40.5986 78.6574 39.7978C78.6574 39.1148 79.2917 38.5591 80.0712 38.5591C80.8507 38.5591 81.4849 39.1148 81.4849 39.7978C81.4849 40.5986 82.2258 41.2479 83.1402 41.2479C84.0545 41.2479 84.7954 40.5986 84.7954 39.7978C84.7954 37.5156 82.6763 35.6588 80.0712 35.6588Z" fill="black"/>
<path d="M29.3102 43.0422C29.31 32.3206 35.5462 22.383 45.7263 16.6532V24.5093C45.7263 26.0488 46.7792 27.4156 48.4086 27.9914L61.689 32.6851C62.7834 33.0718 63.9333 33.2651 65.0833 33.2651C66.2334 33.2651 67.3832 33.0718 68.4776 32.6851L81.758 27.9914C83.3876 27.4154 84.4404 26.0488 84.4404 24.5093V16.6816C88.721 19.1016 92.4007 22.319 95.1675 26.0772C95.4842 26.5072 96.0165 26.7416 96.5601 26.7416C96.8675 26.7416 97.1785 26.6666 97.4559 26.5099C98.2239 26.0757 98.4451 25.1783 97.9496 24.5053C95.085 20.6144 91.3241 17.2543 86.9576 14.6634L92.3442 12.7762C93.2748 12.4503 93.8758 11.6724 93.8758 10.7944C93.8758 9.91636 93.2746 9.13869 92.3442 8.81269L69.1622 0.691081C66.532 -0.230442 63.6347 -0.230442 61.0048 0.691081L53.7949 3.21686C52.9459 3.51423 52.533 4.35803 52.8724 5.10186C53.2118 5.84569 54.1752 6.20726 55.024 5.90988L62.2339 3.38411C64.0714 2.74043 66.095 2.74043 67.9329 3.38411L89.0849 10.7944L67.9329 18.2044C66.095 18.8479 64.071 18.8481 62.2339 18.2044L41.0817 10.7942L47.9871 8.37494C48.8359 8.07757 49.2488 7.23377 48.9094 6.48994C48.5699 5.74611 47.6068 5.38435 46.7578 5.68192L37.8227 8.81231C36.892 9.1383 36.2911 9.91597 36.2911 10.794C36.2911 11.672 36.8922 12.4499 37.8225 12.7759L43.1772 14.6518C32.5041 20.9729 25.9998 31.5992 26 43.042C26 49.9749 28.3531 56.6528 32.8045 62.3536C33.1252 62.7643 33.6443 62.9851 34.1722 62.9851C34.4942 62.9851 34.8195 62.9031 35.1053 62.7316C35.8598 62.2793 36.0532 61.377 35.5369 60.7159C31.4633 55.4998 29.3102 49.3883 29.3102 43.0422ZM65.0833 21.5885C66.4651 21.5885 67.8469 21.3582 69.162 20.8975L81.1299 16.7048V24.5095C81.1299 24.8599 80.8902 25.1708 80.5195 25.3019L67.2391 29.9955C65.8489 30.4868 64.3175 30.4868 62.9273 29.9955L49.6469 25.3019C49.2762 25.1708 49.0365 24.8599 49.0365 24.5095V16.7048L61.0046 20.8977C62.3198 21.3582 63.7015 21.5885 65.0833 21.5885Z" fill="black"/>
<path d="M101.452 30.4799C101.117 29.7347 100.155 29.3694 99.3051 29.6631C98.4548 29.957 98.0375 30.7993 98.3729 31.5443C100.021 35.2035 100.856 39.0719 100.856 43.0422C100.856 55.0773 93.1954 65.8579 80.8631 71.1775C77.791 72.5025 75.8061 75.3102 75.8061 78.3373L75.8158 80.0516H72.5076V62.7792C73.2557 63.0899 74.0917 63.2637 74.9732 63.2637C78.158 63.2637 80.749 60.9937 80.749 58.2034C80.749 55.4132 78.158 53.1432 74.9732 53.1432C72.0445 53.1432 69.6184 55.0624 69.2465 57.5404C68.0901 58.4165 66.632 58.8937 65.0833 58.8937C63.5347 58.8937 62.0768 58.4165 60.9201 57.5404C60.5485 55.0622 58.1221 53.1432 55.1935 53.1432C52.0086 53.1432 49.4177 55.4132 49.4177 58.2034C49.4177 60.9937 52.0086 63.2637 55.1935 63.2637C56.075 63.2637 56.9109 63.0897 57.6591 62.7792V80.0516H54.3595L54.3606 78.3308C54.3606 75.3083 52.3834 72.5039 49.3234 71.186C45.8254 69.6796 42.6443 67.6905 39.8686 65.274C39.2202 64.7096 38.1721 64.7125 37.5279 65.2806C36.8837 65.8486 36.887 66.7669 37.5354 67.3315C40.5666 69.9704 44.0413 72.1431 47.8631 73.7889C49.799 74.6226 51.0501 76.4055 51.0501 78.33L51.049 80.1535C48.0165 80.6607 45.7172 83.0014 45.7172 85.8039C45.7172 88.9756 48.6626 91.5561 52.2829 91.5561H54.821V93.1513C54.821 96.3764 57.8158 99.0002 61.497 99.0002H68.6696C72.3509 99.0002 75.3457 96.3764 75.3457 93.1513V91.5561H77.8837C81.504 91.5561 84.4494 88.9756 84.4494 85.8039C84.4494 83.0043 82.1548 80.6655 79.1269 80.155L79.1165 78.3302C79.1165 76.4065 80.376 74.6203 82.3252 73.7794C88.779 70.9957 94.2327 66.7073 98.0968 61.3779C102.068 55.901 104.167 49.5605 104.167 43.0422C104.167 38.7059 103.253 34.4794 101.452 30.4799ZM74.9732 56.0435C76.3324 56.0435 77.4386 57.0124 77.4386 58.2034C77.4386 59.3945 76.3324 60.3634 74.9732 60.3634C73.6296 60.3634 72.5336 59.4169 72.5082 58.245C72.5091 58.2178 72.5091 58.1905 72.5082 58.1632C72.5325 56.9907 73.6289 56.0435 74.9732 56.0435ZM55.1937 60.3634C53.8344 60.3634 52.7283 59.3945 52.7283 58.2034C52.7283 57.0124 53.8344 56.0435 55.1937 56.0435C56.538 56.0435 57.6342 56.9907 57.6587 58.1632C57.6578 58.1905 57.6578 58.2178 57.6587 58.245C57.6331 59.4169 56.5373 60.3634 55.1937 60.3634ZM60.9696 60.9974C62.2388 61.5193 63.6349 61.794 65.0833 61.794C66.5318 61.794 67.9279 61.5193 69.1971 60.9974V80.0514H60.9698V60.9974H60.9696ZM72.0353 93.1511C72.0353 94.777 70.5255 96.0997 68.6696 96.0997H61.497C59.6412 96.0997 58.1314 94.777 58.1314 93.1511V91.5559H72.0353V93.1511ZM81.139 85.8037C81.139 87.3762 79.6786 88.6556 77.8837 88.6556H52.2829C50.488 88.6556 49.0277 87.3762 49.0277 85.8037C49.0277 84.2311 50.488 82.9517 52.2829 82.9517H77.8837C79.6786 82.9517 81.139 84.2311 81.139 85.8037Z" fill="black"/>
</g>
<defs>
<clipPath id="clip0_102:64">
<rect width="113" height="99" fill="white"/>
</clipPath>
</defs>
</svg>
